<?xml version="1.0" encoding="UTF-8" standalone="no"?>
<!-- Created with Inkscape (http://www.inkscape.org/) -->

<svg
   xmlns:dc="http://purl.org/dc/elements/1.1/"
   xmlns:cc="http://creativecommons.org/ns#"
   xmlns:rdf="http://www.w3.org/1999/02/22-rdf-syntax-ns#"
   xmlns:svg="http://www.w3.org/2000/svg"
   xmlns="http://www.w3.org/2000/svg"
   xmlns:sodipodi="http://sodipodi.sourceforge.net/DTD/sodipodi-0.dtd"
   xmlns:inkscape="http://www.inkscape.org/namespaces/inkscape"
   version="1.1"
   id="svg2"
   width="546.1333"
   height="546.1333"
   viewBox="0 0 546.1333 546.1333"
   sodipodi:docname="location_recommended.svg"
   inkscape:version="0.92.5 (2060ec1f9f, 2020-04-08)">
  <metadata
     id="metadata8">
    <rdf:RDF>
      <cc:Work
         rdf:about="">
        <dc:format>image/svg+xml</dc:format>
        <dc:type
           rdf:resource="http://purl.org/dc/dcmitype/StillImage" />
        <dc:title />
      </cc:Work>
    </rdf:RDF>
  </metadata>
  <defs
     id="defs6" />
  <sodipodi:namedview
     pagecolor="#ffffff"
     bordercolor="#666666"
     borderopacity="1"
     objecttolerance="10"
     gridtolerance="10"
     guidetolerance="10"
     inkscape:pageopacity="0"
     inkscape:pageshadow="2"
     inkscape:window-width="1920"
     inkscape:window-height="1020"
     id="namedview4"
     showgrid="false"
     inkscape:zoom="1.2222452"
     inkscape:cx="242.08203"
     inkscape:cy="207.73525"
     inkscape:window-x="0"
     inkscape:window-y="32"
     inkscape:window-maximized="1"
     inkscape:current-layer="g817" />
  <g
     id="g817"
     transform="matrix(1.0001655,0,0,1,-0.07231704,-1.5619579e-6)">
    <rect
       style="fill:#fafff8;fill-opacity:1;stroke:none;stroke-width:5.66882229;stroke-linecap:butt;stroke-linejoin:miter;stroke-miterlimit:4;stroke-dasharray:none;stroke-opacity:1"
       id="rect838"
       width="118.6145"
       height="124.3613"
       x="210.30629"
       y="363.68219" />
    <rect
       style="fill:#e5fff8;fill-opacity:1;stroke:none;stroke-width:2.7271924;stroke-linecap:butt;stroke-linejoin:miter;stroke-miterlimit:4;stroke-dasharray:none;stroke-opacity:1"
       id="rect836"
       width="243.57069"
       height="311.01669"
       x="151.30846"
       y="72.581154" />
    <path
       style="fill:#fed0d0;stroke-width:1.0666666"
       d="M 265.59998,543.99791 C 260.02841,541.15806 239.45613,523.23382 220.96673,505.10979 143.35806,429.0348 93.480156,341.31061 79.025518,255.46665 70.950279,207.509 72.600061,170.32448 84.373267,134.93333 105.26285,72.137656 154.97463,24.558021 219.20222,5.8872017 243.02938,-1.039303 296.05989,-1.7999255 321.36663,4.4218457 374.73577,17.542879 423.19433,57.089917 448.98876,108.57429 c 10.46578,20.88918 16.56067,39.18507 20.19364,60.61811 10.64757,62.81629 -8.07851,144.19362 -49.85425,216.6501 -31.31983,54.32158 -77.45421,108.60545 -128.02067,150.63512 -11.85092,9.8502 -17.75047,11.57601 -25.7075,7.52029 z m 23.72749,-87.19794 c 6.99886,-6.89333 14.20334,-14.38341 16.00996,-16.64463 4.02569,-5.03863 4.34664,-9.7613 0.85549,-12.58825 -2.23459,-1.80946 -4.87985,-1.96712 -33.0071,-1.96712 -33.25329,0 -34.32986,0.17973 -35.78411,5.97393 -0.99891,3.97997 2.12398,8.08468 18.41305,24.202 17.97792,17.78835 16.53654,17.74431 33.51271,1.02407 z M 223.97819,353.86665 c 9.38265,-4.79431 9.01721,-2.90755 9.6218,-49.67643 l 0.53333,-41.2569 37.33333,-0.66594 c 39.18505,-0.69898 42.21229,-1.03891 56.60582,-6.35625 25.22462,-9.3186 46.07504,-32.42728 53.33462,-59.11114 2.332,-8.57168 3.16787,-27.2891 1.61649,-36.19775 -3.9783,-22.84517 -18.27711,-45.21273 -37.03308,-57.93073 -8.94764,-6.067187 -16.00067,-9.432423 -26.72922,-12.753391 l -9.39463,-2.908059 -52.8,-0.348495 -52.8,-0.348494 -4.8,2.443461 c -3.50483,1.784152 -5.44758,3.727662 -7.2,7.202811 l -2.39999,4.759347 v 120.61463 120.61463 l 2.39999,4.75935 c 3.3451,6.63353 9.30324,9.55934 19.46667,9.55934 5.72474,0 8.68252,-0.57972 12.24487,-2.39999 z m 11.48846,-136.3521 c -1.7276,-1.00624 -1.86666,-4.2062 -1.86666,-42.95423 0,-31.141 0.32792,-42.19492 1.28,-43.14699 2.09292,-2.09293 64.65406,-1.77069 72.89588,0.37546 12.41699,3.23337 22.48843,11.59872 28.38522,23.57679 4.41592,8.97002 5.47565,22.26709 2.50645,31.44997 -5.37305,16.61733 -18.56782,27.96076 -35.73423,30.72039 -9.03969,1.45321 -64.96537,1.43547 -67.46666,-0.0214 z"
       id="path831"
       inkscape:connector-curvature="0" />
    <path
       style="fill:#feafaf;stroke-width:1.0666666"
       d="M 265.54215,543.089 C 251.39634,534.00791 206.9761,491.49812 186.24258,467.19997 116.10567,385.0047 78.589485,297.96973 75.072097,209.29204 72.194935,136.75526 104.78653,71.720789 163.665,32.51048 203.40537,6.0452563 249.00974,-4.3161166 299.73332,1.595579 c 15.76279,1.837111 22.30965,3.3405733 37.33333,8.573469 63.76534,22.210089 112.84566,78.39773 129.01497,147.697612 9.32229,39.95428 5.98653,88.74125 -9.6228,140.73806 -24.84373,82.75783 -86.03862,170.72916 -163.82584,235.50952 -16.14637,13.44654 -18.77076,14.31595 -27.09083,8.97476 z m 27.51328,-89.05476 c 15.66475,-15.74929 16.27788,-16.52984 16.27788,-20.72258 0,-3.43629 -0.59382,-4.82395 -2.81051,-6.5676 -2.6952,-2.12004 -4.06793,-2.21075 -33.45615,-2.21075 -29.38822,0 -30.76095,0.0907 -33.45615,2.21075 -2.21669,1.74365 -2.81051,3.13131 -2.81051,6.5676 0,4.19274 0.61313,4.97329 16.27788,20.72258 14.77469,14.85441 16.62058,16.36573 19.98878,16.36573 3.3682,0 5.21409,-1.51132 19.98878,-16.36573 z m -68.31058,-99.18637 c 1.87634,-0.97844 4.75634,-3.54136 6.4,-5.69538 l 2.98847,-3.91639 0.3162,-40.08093 c 0.19644,-24.89978 0.7208,-40.48638 1.38443,-41.15139 0.65276,-0.65413 16.08693,-1.30002 39.68379,-1.66069 36.48348,-0.55764 39.02783,-0.72506 46.08224,-3.03213 30.22071,-9.88337 52.70529,-33.15408 60.91452,-63.04431 2.97078,-10.81671 2.74969,-33.16031 -0.43729,-44.1939 -9.00101,-31.16238 -33.21687,-54.980108 -64.80147,-63.73609 -8.08849,-2.242316 -10.83581,-2.367984 -60.12847,-2.750367 -45.9426,-0.356396 -52.15942,-0.207177 -56.23633,1.349808 -5.39935,2.062029 -9.46368,6.508131 -10.99734,12.030352 -1.54465,5.561747 -1.52094,239.257187 0.0248,244.823717 1.48505,5.34782 5.8542,10.06122 11.12822,12.00501 5.52666,2.03692 18.98821,1.49834 23.67819,-0.94731 z m 11.24258,-138.13493 c -1.05406,-0.66912 -1.28535,-9.97505 -1.06667,-42.91699 l 0.27923,-42.06262 h 35.73333 c 34.96834,0 35.86542,0.0533 41.90355,2.49044 8.52492,3.44085 17.93421,12.35987 22.21694,21.05932 8.11425,16.48239 4.86218,36.11539 -8.13862,49.13353 -11.85224,11.86803 -17.67382,13.18797 -58.07265,13.16704 -17.33006,-0.009 -32.11487,-0.40081 -32.85511,-0.87072 z"
       id="path829"
       inkscape:connector-curvature="0" />
    <path
       style="fill:#fe9090;stroke-width:1.0666666"
       d="M 264.88169,542.2239 C 244.32052,526.61087 201.78795,485.17697 182.44428,461.91596 120.86642,387.86781 85.582089,310.88218 77.258766,232.4155 74.714735,208.43207 75.632511,175.90675 79.349374,158.32586 90.314586,106.46003 120.2998,62.026358 164.10566,32.729496 202.77637,6.8669688 250.82891,-4.2796112 298.3098,1.5986316 366.25127,10.009945 425.53932,55.870051 453.69642,121.79228 c 16.39759,38.39054 20.82163,77.90457 13.94977,124.59464 -11.29442,76.73865 -48.54886,152.07373 -110.73259,223.92094 -20.82843,24.0652 -61.4222,62.69292 -76.60215,72.89211 -5.88135,3.95159 -9.21842,3.7405 -15.42976,-0.97607 z m 12.31735,-72.28783 c 4.29201,-2.21948 32.00785,-31.19432 32.77939,-34.2684 0.99299,-3.95636 -0.36483,-7.70153 -3.54848,-9.78754 -2.57164,-1.685 -6.0346,-1.88016 -33.3633,-1.88016 -27.3287,0 -30.79166,0.19516 -33.3633,1.88016 -3.20102,2.09739 -4.5407,5.83424 -3.53218,9.85252 0.74618,2.97302 27.08456,30.67545 32.09548,33.75768 3.85807,2.37312 5.0867,2.43443 8.93239,0.44574 z M 225.01931,355.22413 c 2.27389,-1.16006 5.25478,-3.68006 6.62419,-5.6 2.47856,-3.47503 2.49242,-3.67657 3.06618,-44.55748 0.317,-22.58667 0.677,-41.18667 0.8,-41.33333 0.123,-0.14667 15.28076,-0.26667 33.68391,-0.26667 37.31329,0 46.52057,-0.9855 60.13357,-6.43642 33.9917,-13.61093 55.75593,-45.49964 56.03162,-82.09691 0.10134,-13.44928 -1.49748,-21.53615 -6.79993,-34.39475 -8.63124,-20.93095 -27.53981,-39.61485 -49.18242,-48.598032 -15.10761,-6.270699 -18.9954,-6.608989 -75.73147,-6.589663 -51.46388,0.01754 -51.51558,0.01978 -55.75657,2.421742 -2.38009,1.348015 -5.3011,4.269015 -6.64912,6.649118 l -2.40419,4.244926 -0.0121,122.666659 -0.012,122.66666 2.51174,4.14945 c 4.17988,6.90521 9.1653,9.17199 20.18648,9.17842 7.24289,0.004 10.31637,-0.47437 13.51017,-2.10372 z M 235.3341,214.89818 c -0.3671,-0.95664 -0.66745,-19.36834 -0.66745,-40.91489 0,-30.34898 0.3107,-39.60047 1.37902,-41.06147 1.27967,-1.75006 3.79629,-1.85584 34.93333,-1.46845 37.79325,0.47021 39.95404,0.82457 50.32888,8.25384 6.40105,4.58368 13.83122,14.54072 15.79906,21.17201 3.39155,11.42887 1.90002,25.07653 -3.80434,34.81028 -3.79571,6.47689 -12.28023,14.08191 -19.47001,17.45176 l -6.09928,2.85873 -35.86588,0.31877 c -32.35693,0.28758 -35.93118,0.14861 -36.53333,-1.42058 z"
       id="path827"
       inkscape:connector-curvature="0" />
    <path
       style="fill:#fe6e6e;stroke-width:1.0666666"
       d="m 269.86665,545.34056 c -0.88,-0.34338 -6.88,-5.02746 -13.33333,-10.40907 C 180.73351,471.71994 122.94318,391.49485 95.447708,311.31094 82.17621,272.60781 76.511848,240.02944 76.372397,201.59999 76.27808,175.6082 77.782881,163.62702 83.740756,142.93332 112.0774,44.510674 212.66591,-16.530501 312.24941,4.2650282 371.0477,16.543584 420.3468,55.417357 448.38777,111.61408 c 17.63222,35.33662 24.95821,76.26267 20.90896,116.80623 -6.40746,64.15535 -29.20783,124.86049 -69.65218,185.44633 -29.72951,44.53496 -72.77301,91.54693 -114.60514,125.17136 -8.41107,6.76078 -11.11741,7.88495 -15.17276,6.30256 z m 8.31964,-75.39752 c 2.72495,-1.44138 14.39117,-12.99863 26.66161,-26.41255 4.68877,-5.12572 5.5468,-6.70138 5.51816,-10.13333 -0.037,-4.43665 -1.37451,-6.77858 -4.96262,-8.68962 -1.61237,-0.85876 -11.56553,-1.2409 -32.31964,-1.2409 -36.24523,0 -37.35048,0.30287 -37.35048,10.23499 0,3.13162 1.44801,5.24514 10.02208,14.6282 5.51215,6.03222 12.97951,13.70574 16.59413,17.05224 7.09414,6.56793 10.29814,7.49068 15.83676,4.56097 z M 225.67046,355.33196 c 2.32805,-1.30845 5.42459,-4.11739 6.88118,-6.24208 l 2.64835,-3.8631 0.31463,-40.33845 0.31463,-40.33845 2.35204,-0.52578 c 1.29362,-0.28918 18.91203,-0.65771 39.15203,-0.81894 l 36.79999,-0.29315 10.13334,-3.51052 c 23.71483,-8.21559 41.79983,-23.91682 52.66787,-45.72577 13.49729,-27.08511 11.87829,-59.50643 -4.26492,-85.40714 -12.65834,-20.30947 -31.80431,-34.492234 -55.33629,-40.991464 -8.14954,-2.2508 -10.85641,-2.374819 -60.18604,-2.757489 -45.856,-0.355725 -52.16493,-0.205073 -56.21696,1.342409 -5.49717,2.099389 -10.54148,7.551698 -12.06618,13.042135 -1.5712,5.657849 -1.55235,239.268149 0.0197,244.929859 1.48341,5.34227 6.82289,11.05205 12.18277,13.02768 6.29962,2.32199 19.17488,1.52147 24.60381,-1.52975 z m 10.54963,-140.13534 c -0.28212,-0.73518 -0.38705,-19.57518 -0.23319,-41.86667 l 0.27975,-40.52996 33.06667,-0.28585 c 30.49267,-0.26361 33.60637,-0.12017 39.99999,1.84265 12.11709,3.71993 22.10858,13.21139 26.67713,25.34207 3.38938,8.99965 2.70218,23.85182 -1.50922,32.61841 -5.61765,11.69389 -17.44338,20.69916 -30.38016,23.13446 -8.77146,1.6512 -67.25377,1.43147 -67.90097,-0.25511 z"
       id="path825"
       inkscape:connector-curvature="0" />
    <path
       style="fill:#fe5050;stroke-width:1.0666666"
       d="M 261.78801,538.58346 C 200.36293,488.64201 147.3473,423.40893 115.89727,359.07223 88.172634,302.35648 75.585016,248.43896 77.073558,192.7756 77.901348,161.82078 83.554634,138.08746 96.406023,111.6151 126.83189,48.941388 185.14273,9.0382816 258.13332,0.94235862 c 10.63842,-1.17998495 32.37008,-0.56420986 40.53333,1.14852748 32.08111,6.7309605 46.54152,11.5238069 65.30863,21.6462849 29.5391,15.932587 58.24649,43.541856 75.85248,72.950933 21.83496,36.473166 32.30101,80.438296 29.42721,123.616046 -5.43003,81.58393 -41.46101,163.67777 -105.50961,240.3955 -20.21802,24.21726 -48.3396,52.48465 -70.87409,71.24161 -5.31921,4.42752 -11.0033,9.2064 -12.63131,10.61971 -5.80977,5.04362 -7.9145,4.58992 -18.45195,-3.97751 z m 32.27193,-83.43842 c 10.17752,-10.25861 16.4756,-17.44713 16.95323,-19.35013 1.01489,-4.04363 -0.49116,-7.88919 -4.15885,-10.61931 -2.90165,-2.15989 -4.16894,-2.24229 -34.4879,-2.24229 h -31.47557 l -3.1121,3.4835 c -3.43039,3.83976 -3.90819,7.38739 -1.58514,11.76947 1.7243,3.25261 31.2042,32.71242 33.67304,33.65009 4.81388,1.82831 8.00251,-0.37158 24.19329,-16.69133 z M 227.90421,354.59081 c 7.88333,-6.30518 7.82559,-5.9464 7.82746,-48.63692 9e-4,-20.92535 0.293,-38.80535 0.6491,-39.73333 0.57098,-1.48795 4.52327,-1.68724 33.46028,-1.68724 36.52209,0 45.49778,-0.96458 59.60719,-6.40574 11.72771,-4.52269 23.06022,-12.38972 33.05022,-22.94347 15.34522,-16.21116 23.75878,-37.17847 23.96282,-59.71745 0.0584,-6.45334 -0.52154,-14.61334 -1.28881,-18.13334 -6.16016,-28.26086 -25.30561,-52.2452 -51.45598,-64.461117 C 316.083,84.634865 317.68714,84.799995 255.2996,84.799995 h -55.63372 l -3.98733,3.226724 c -2.19303,1.774698 -4.87786,4.887209 -5.96627,6.916692 -1.89457,3.532631 -1.97896,8.911459 -1.97896,126.149099 0,118.06087 0.0725,122.60126 2.01983,126.41663 4.43888,8.69721 9.42481,10.9803 23.21773,10.63154 10.3068,-0.26062 11.03814,-0.43446 14.93333,-3.54987 z m 8.60411,-139.77138 c -0.42625,-0.42625 -0.775,-18.59899 -0.775,-40.38389 0,-29.38468 0.3304,-39.93928 1.28,-40.88888 1.68435,-1.68435 57.4908,-1.77877 66.52409,-0.11256 9.3669,1.72776 16.91358,5.88244 23.38842,12.87604 7.88648,8.51834 10.58557,15.66115 10.63553,28.14554 0.0363,9.05571 -0.21141,10.16158 -3.98521,17.79699 -4.57879,9.26414 -10.48111,15.13359 -19.84391,19.73344 l -5.99893,2.94721 -35.225,0.33056 c -19.37374,0.1818 -35.57374,-0.0182 -35.99999,-0.44445 z"
       id="path823"
       inkscape:connector-curvature="0" />
    <path
       style="fill:#fe3636;stroke-width:1.0666666"
       d="m 271.30792,545.46285 c -0.67397,-0.27612 -2.83397,-1.87985 -4.8,-3.56384 -1.96603,-1.684 -8.8546,-7.5109 -15.30794,-12.94867 C 236.54469,516.60133 208.98692,489.6074 195.23796,474.1333 128.99999,399.58416 89.43724,318.95222 79.573402,238.39999 74.563605,197.48788 76.922131,166.74644 87.497447,135.11658 109.68421,68.757899 165.56804,19.414734 234.4293,5.3817038 c 5.88819,-1.1999372 11.8544,-2.181704 13.25824,-2.181704 1.40385,0 3.12433,-0.5718811 3.82329,-1.2708469 1.64817,-1.6481699 42.73036,-1.75771867 43.7837,-0.1167526 0.388,0.6044422 3.58545,1.4503823 7.10545,1.879867 3.52,0.4294846 11.68,2.1122075 18.13333,3.7393844 C 399.78547,27.4147 458.81917,97.878774 468.20089,183.69128 c 4.68589,42.86077 -6.22929,102.40851 -28.21166,153.9087 -31.00852,72.64663 -88.40868,146.49326 -156.56408,201.42336 -3.39618,2.73714 -5.79617,5.01037 -5.33334,5.0516 1.13659,0.10123 -3.14337,1.91086 -4.49183,1.89918 -0.58666,-0.005 -1.61809,-0.23516 -2.29206,-0.51127 z m 18.0463,-84.39621 c 17.61178,-17.25746 22.11243,-22.95561 22.11243,-27.99589 0,-2.85005 -0.80674,-5.09018 -2.57302,-7.14463 l -2.573,-2.99281 -32.21161,-0.31206 c -35.696,-0.34581 -36.05391,-0.28575 -38.90114,6.52863 -2.66509,6.37846 -1.27274,8.62952 16.42725,26.55856 16.4798,16.69307 16.67434,16.84666 21.32426,16.83581 4.52434,-0.0107 5.11268,-0.42243 16.39483,-11.47761 z M 227.46247,355.65741 c 2.62217,-1.82187 5.55059,-5.1556 6.93752,-7.89771 2.35713,-4.66033 2.4,-5.43388 2.4,-43.30848 v -38.56339 l 35.99999,-0.59013 c 31.88693,-0.52271 37.03588,-0.84873 45.06667,-2.8536 42.48139,-10.60537 71.07552,-48.83776 69.03956,-92.31078 -1.82744,-39.02052 -27.79809,-71.040328 -67.67227,-83.434682 l -9.36729,-2.911699 -54.47631,-0.02681 -54.4763,-0.02681 -4.32565,2.861528 c -2.37911,1.57384 -5.46477,4.69384 -6.85703,6.933332 l -2.53137,4.071806 -0.30674,121.066655 c -0.23479,92.66453 -0.002,122.17535 0.99253,125.79253 1.53633,5.58812 7.39482,11.89814 12.69786,13.67654 2.02566,0.67932 7.88114,1.10894 13.01217,0.95471 8.36028,-0.25128 9.80039,-0.60782 13.86666,-3.43302 z M 237.5111,214.75554 c -0.39111,-0.39111 -0.71111,-18.89542 -0.71111,-41.1207 v -40.4096 l 34.93333,0.32071 34.93333,0.32071 6.93638,3.28726 c 8.5038,4.03009 15.94041,11.27011 19.91874,19.39221 2.70602,5.52455 2.9986,7.21273 3.00474,17.33716 0.006,10.52617 -0.2086,11.65451 -3.49247,18.33047 -5.69279,11.57312 -16.54463,19.81765 -29.25862,22.22882 -6.04332,1.14609 -65.15203,1.42526 -66.26432,0.31296 z"
       id="path821"
       inkscape:connector-curvature="0" />
    <path
       style="fill:#fe2323;stroke-width:1.0666666"
       d="m 269.41273,542.92943 c -1.22382,-0.52612 -1.49706,-0.94906 -0.64092,-0.99207 0.82082,-0.0413 -1.57918,-2.40648 -5.33334,-5.25609 -20.80741,-15.79402 -56.83445,-50.94369 -78.3476,-76.43962 C 125.16757,389.22459 89.827044,314.93426 79.556943,238.39574 76.828764,218.06383 76.297852,187.62529 78.394135,171.72908 86.429516,110.79642 120.43432,58.664367 172.58121,27.332865 c 21.96647,-13.198153 52.655,-23.4428334 78.2225,-26.112834 6.35108,-0.6632402 7.75023,-1.031348 4.74236,-1.2476935 -2.78147,-0.2000618 -1.11064,-0.5819522 4.8,-1.0970982 10.6261,-0.9261258 36.17893,0.1279485 29.33333,1.2100231 l -4.26667,0.6744261 4.06235,0.1513657 c 12.17546,0.453666 35.3327,5.7055518 49.809,11.2963038 41.45252,16.00898 78.25909,47.772899 100.48309,86.716502 25.79933,45.20876 33.24124,94.78256 23.09889,153.87188 -17.13513,99.82911 -84.60002,205.59697 -180.65333,283.21862 -3.52,2.84455 -6.28,5.56403 -6.13333,6.0433 0.14667,0.47927 -0.17408,0.87139 -0.71276,0.87139 -0.53869,0 -1.61869,0.20644 -2.4,0.45873 -0.78132,0.25231 -2.38057,0.0461 -3.55391,-0.45835 z m 7.78631,-72.99336 c 2.97715,-1.57761 27.98059,-26.50489 32.04851,-31.95086 4.37128,-5.85213 2.47252,-13.78993 -4.11326,-17.19557 -4.54263,-2.34908 -61.56715,-2.34908 -66.10978,0 -7.71663,3.99042 -8.59153,11.5072 -2.25533,19.37697 5.23164,6.49787 28.89955,29.79586 31.04355,30.55834 2.94598,1.0477 6.48116,0.75058 9.38631,-0.78888 z M 225.15408,355.19165 c 5.00087,-2.55126 8.97604,-7.5746 10.54796,-13.32925 0.73803,-2.70189 1.16764,-17.86069 1.17141,-41.33333 l 0.006,-37.06667 h 34.1783 c 26.98886,0 35.89375,-0.35433 42.33346,-1.68449 34.11202,-7.04603 60.38194,-31.4455 70.1973,-65.19914 14.19763,-48.82363 -16.54006,-100.176212 -67.96998,-113.555498 -8.33179,-2.16748 -11.8798,-2.33514 -58.22759,-2.751526 -33.75198,-0.303225 -51.10087,-0.06902 -54.87704,0.740823 -6.80217,1.458804 -11.83895,5.173087 -14.97762,11.044973 l -2.39016,4.471539 V 219.19574 c 0,117.79624 0.0793,122.81489 1.9953,126.39999 3.72134,6.96289 7.97039,10.1938 15.6047,11.86558 5.88486,1.28868 17.79841,0.0819 22.40801,-2.26966 z M 236.8794,172.27526 v -40.12093 l 34.93333,0.32071 34.93333,0.32071 5.94652,2.92242 c 11.70244,5.75116 19.95986,16.82855 22.39535,30.04354 3.10696,16.85838 -6.15801,34.54084 -22.25175,42.46809 l -7.10417,3.49927 -34.42631,0.33356 -34.4263,0.33357 z"
       id="path819"
       inkscape:connector-curvature="0" />
  </g>
</svg>
